<svg viewBox="0 0 24 24" stroke-width="2" stroke="currentColor" stroke-linecap="round" stroke-linejoin="round" fill="none" width="32" height="32" xmlns="http://www.w3.org/2000/svg" xmlns:xlink="http://www.w3.org/1999/xlink">
    <style>
        :root, .palette0 {color: currentColor;
            --color0: #fff;
        }
    </style>
    <path d="M12.765 21.522A0.5 0.5 0 0 1 12 21.098v-8.196a0.5 0.5 0 0 1 0.765-0.424l5.878 3.674a1 1 0 0 1 0 1.696z" />
    <path d="M14.12 3.88 16 2" />
    <path d="M18 11a4 4 0 0 0-4-4h-4a4 4 0 0 0-4 4v3a6.1 6.1 0 0 0 2 4.5" />
    <path d="M20.97 5c0 2.1-1.6 3.8-3.5 4" />
    <path d="M3 21c0-2.1 1.7-3.9 3.8-4" />
    <path d="M6 13H2" />
    <path d="M6.53 9C4.6 8.8 3 7.1 3 5" />
    <path d="M8 2 9.88 3.88" />
    <path d="M9 7.13v-1a3.003 3.003 0 1 1 6 0v1" />
</svg>