<svg viewBox="0 0 24 24" stroke-width="2" stroke="currentColor" stroke-linecap="round" stroke-linejoin="round" fill="none" width="32" height="32" xmlns="http://www.w3.org/2000/svg" xmlns:xlink="http://www.w3.org/1999/xlink">
    <style>
        :root, .palette0 {color: currentColor;
            --color0: #fff;
        }
    </style>
    <path d="M3 10h18V6a2 2 0 0 0-2-2H5a2 2 0 0 0-2 2v14a2 2 0 0 0 2 2h7" />
    <path d="M8 2v4" />
    <path d="M16 2v4" />
    <path d="M21.29 14.7a2.43 2.43 0 0 0-2.65-0.52c-0.3 0.12-0.57 0.3-0.8 0.53l-0.34 0.34-0.35-0.34a2.43 2.43 0 0 0-2.65-0.53c-0.3 0.12-0.56 0.3-0.79 0.53-0.95 0.94-1 2.53 0.2 3.74L17.5 22l3.6-3.55c1.2-1.21 1.14-2.8 0.19-3.75z" />
</svg>