<svg viewBox="0 0 24 24" stroke-width="2" stroke="currentColor" stroke-linecap="round" stroke-linejoin="round" fill="none" width="32" height="32" xmlns="http://www.w3.org/2000/svg" xmlns:xlink="http://www.w3.org/1999/xlink">
    <style>
        :root, .palette0 {color: currentColor;
            --color0: #fff;
        }
    </style>
    <path d="M12 5c0.67 0 1.35 0.09 2 0.26 1.78-2 5.03-2.84 6.42-2.26 1.4 0.58-0.42 7-0.42 7 0.57 1.07 1 2.24 1 3.44 0 4.46-4.03 7.56-9 7.56s-9-3-9-7.56c0-1.25 0.5-2.4 1-3.44 0 0-1.89-6.42-0.5-7S8.22 3.23 10 5.23A9.04 9.04 0 0 1 12 5z" />
    <path d="M8 14v0.5" />
    <path d="M16 14v0.5" />
    <path d="M11.25 16.25h1.5L12 17z" />
</svg>