<svg viewBox="0 0 24 24" stroke-width="2" stroke="currentColor" stroke-linecap="round" stroke-linejoin="round" fill="none" width="32" height="32" xmlns="http://www.w3.org/2000/svg" xmlns:xlink="http://www.w3.org/1999/xlink">
    <style>
        :root, .palette0 {color: currentColor;
            --color0: #fff;
        }
    </style>
    <path d="M16.17 7.83 2 22" />
    <path d="M4.02 12a2.827 2.827 0 1 1 3.81-4.17A2.827 2.827 0 1 1 12 4.02a2.827 2.827 0 1 1 4.17 3.81 2.827 2.827 0 1 1 3.81 4.17 2.827 2.827 0 1 1-3.81 4.17 2.827 2.827 0 1 1-4.17 3.81 2.827 2.827 0 1 1-4.17-3.81A1 1 0 1 1 4 12" />
    <path d="M7.83 7.83l8.34 8.34" />
</svg>