<svg viewBox="0 0 24 24" stroke-width="2" stroke="currentColor" stroke-linecap="round" stroke-linejoin="round" fill="none" width="32" height="32" xmlns="http://www.w3.org/2000/svg" xmlns:xlink="http://www.w3.org/1999/xlink">
    <style>
        :root, .palette0 {color: currentColor;
            --color0: #fff;
        }
    </style>
    <path d="M11 2a2 2 0 0 0-2 2v5H4a2 2 0 0 0-2 2v2c0 1.1 0.9 2 2 2h5v5c0 1.1 0.9 2 2 2h2a2 2 0 0 0 2-2v-5h5a2 2 0 0 0 2-2v-2a2 2 0 0 0-2-2h-5V4a2 2 0 0 0-2-2z" />
</svg>