<svg viewBox="0 0 24 24" stroke-width="2" stroke="currentColor" stroke-linecap="round" stroke-linejoin="round" fill="none" width="32" height="32" xmlns="http://www.w3.org/2000/svg" xmlns:xlink="http://www.w3.org/1999/xlink">
    <style>
        :root, .palette0 {color: currentColor;
            --color0: #fff;
        }
    </style>
    <path d="M21 7h-3a2 2 0 0 1-2-2V2" />
    <path d="M21 6v6.5c0 0.8-0.7 1.5-1.5 1.5h-7c-0.8 0-1.5-0.7-1.5-1.5v-9C11 2.7 11.7 2 12.5 2H17z" />
    <path d="M7 8v8.8c0 0.3 0.2 0.6 0.4 0.8S7.9 18 8.2 18H15" />
    <path d="M3 12v8.8c0 0.3 0.2 0.6 0.4 0.8S3.9 22 4.2 22H11" />
</svg>