<svg viewBox="0 0 24 24" stroke-width="2" stroke="currentColor" stroke-linecap="round" stroke-linejoin="round" fill="none" width="32" height="32" xmlns="http://www.w3.org/2000/svg" xmlns:xlink="http://www.w3.org/1999/xlink">
    <style>
        :root, .palette0 {color: currentColor;
            --color0: #fff;
        }
    </style>
    <path d="M14.5 22H18a2 2 0 0 0 2-2V7l-5-5H6a2 2 0 0 0-2 2v4" />
    <path d="M14 2v4a2 2 0 0 0 2 2h4" />
    <path d="M3 13.1a2 2 0 0 0-1 1.76v3.24a2 2 0 0 0 0.97 1.78L6 21.7a2 2 0 0 0 2.03 0.01L11 19.9a2 2 0 0 0 1-1.76V14.9a2 2 0 0 0-0.97-1.78L8 11.3a2 2 0 0 0-2.03-0.01z" />
    <path d="M7 17v5" />
    <path d="M11.7 14.2 7 17 2.3 14.2" />
</svg>