<svg viewBox="0 0 24 24" stroke-width="2" stroke="currentColor" stroke-linecap="round" stroke-linejoin="round" fill="none" width="32" height="32" xmlns="http://www.w3.org/2000/svg" xmlns:xlink="http://www.w3.org/1999/xlink">
    <style>
        :root, .palette0 {color: currentColor;
            --color0: #fff;
        }
    </style>
    <path d="M17.5 22H18a2 2 0 0 0 2-2V7l-5-5H6a2 2 0 0 0-2 2v3" />
    <path d="M14 2v4a2 2 0 0 0 2 2h4" />
    <path d="M2 19a2 2 0 1 1 4 0v1a2 2 0 1 1-4 0v-4a6 6 0 0 1 12 0v4a2 2 0 1 1-4 0v-1a2 2 0 1 1 4 0" />
</svg>