<svg viewBox="0 0 24 24" stroke-width="2" stroke="currentColor" stroke-linecap="round" stroke-linejoin="round" fill="none" width="32" height="32" xmlns="http://www.w3.org/2000/svg" xmlns:xlink="http://www.w3.org/1999/xlink">
    <style>
        :root, .palette0 {color: currentColor;
            --color0: #fff;
        }
    </style>
    <path d="M4 22h14a2 2 0 0 0 2-2V7l-5-5H6a2 2 0 0 0-2 2v2" />
    <path d="M14 2v4a2 2 0 0 0 2 2h4" />
    <path d="M10.29 10.7a2.43 2.43 0 0 0-2.66-0.52c-0.29 0.12-0.56 0.3-0.78 0.53L6.5 11.05 6.15 10.71a2.43 2.43 0 0 0-2.65-0.53c-0.3 0.12-0.56 0.3-0.79 0.53-0.95 0.94-1 2.53 0.2 3.74L6.5 18l3.6-3.55c1.2-1.21 1.14-2.8 0.19-3.75z" />
</svg>