<svg viewBox="0 0 24 24" stroke-width="2" stroke="currentColor" stroke-linecap="round" stroke-linejoin="round" fill="none" width="32" height="32" xmlns="http://www.w3.org/2000/svg" xmlns:xlink="http://www.w3.org/1999/xlink">
    <style>
        :root, .palette0 {color: currentColor;
            --color0: #fff;
        }
    </style>
    <path d="M15 2H6a2 2 0 0 0-2 2v16a2 2 0 0 0 2 2h12a2 2 0 0 0 2-2V7z" />
    <path d="M14 2v4a2 2 0 0 0 2 2h4" />
    <path d="M8 15h0.01" />
    <path d="M11.5 13.5a2.5 2.5 0 0 1 0 3" />
    <path d="M15 12a5 5 0 0 1 0 6" />
</svg>