<svg viewBox="0 0 24 24" stroke-width="2" stroke="currentColor" stroke-linecap="round" stroke-linejoin="round" fill="none" width="32" height="32" xmlns="http://www.w3.org/2000/svg" xmlns:xlink="http://www.w3.org/1999/xlink">
    <style>
        :root, .palette0 {color: currentColor;
            --color0: #fff;
        }
    </style>
    <path d="M4 22h14a2 2 0 0 0 2-2V7l-5-5H6a2 2 0 0 0-2 2v2" />
    <path d="M14 2v4a2 2 0 0 0 2 2h4" />
    <circle cx="6" cy="14" r="3" />
    <path d="M6 10v1" />
    <path d="M6 17v1" />
    <path d="M10 14H9" />
    <path d="M3 14H2" />
    <path d="M9 11 8.12 11.88" />
    <path d="M3.88 16.12 3 17" />
    <path d="M9 17 8.12 16.12" />
    <path d="M3.88 11.88 3 11" />
</svg>