<svg viewBox="0 0 24 24" stroke-width="2" stroke="currentColor" stroke-linecap="round" stroke-linejoin="round" fill="none" width="32" height="32" xmlns="http://www.w3.org/2000/svg" xmlns:xlink="http://www.w3.org/1999/xlink">
    <style>
        :root, .palette0 {color: currentColor;
            --color0: #fff;
        }
    </style>
    <path d="M14 2v4a2 2 0 0 0 2 2h4" />
    <path d="M4 7V4a2 2 0 0 1 2-2 2 2 0 0 0-2 2" />
    <path d="M4.063 20.999a2 2 0 0 0 2 1L18 22a2 2 0 0 0 2-2V7l-5-5H6" />
    <path d="M5 11 2 14" />
    <path d="M5 17 2 14h10" />
</svg>