<svg viewBox="0 0 24 24" stroke-width="2" stroke="currentColor" stroke-linecap="round" stroke-linejoin="round" fill="none" width="32" height="32" xmlns="http://www.w3.org/2000/svg" xmlns:xlink="http://www.w3.org/1999/xlink">
    <style>
        :root, .palette0 {color: currentColor;
            --color0: #fff;
        }
    </style>
    <path d="M12 10a2 2 0 0 0-2 2c0 1.02-0.1 2.51-0.26 4" />
    <path d="M14 13.12c0 2.38 0 6.38-1 8.88" />
    <path d="M17.29 21.02c0.12-0.6 0.43-2.3 0.5-3.02" />
    <path d="M2 12a10 10 0 0 1 18-6" />
    <path d="M2 16h0.01" />
    <path d="M21.8 16c0.2-2 0.131-5.354 0-6" />
    <path d="M5 19.5C5.5 18 6 15 6 12a6 6 0 0 1 0.34-2" />
    <path d="M8.65 22c0.21-0.66 0.45-1.32 0.57-2" />
    <path d="M9 6.8a6 6 0 0 1 9 5.2v2" />
</svg>