<svg viewBox="0 0 24 24" stroke-width="2" stroke="currentColor" stroke-linecap="round" stroke-linejoin="round" fill="none" width="32" height="32" xmlns="http://www.w3.org/2000/svg" xmlns:xlink="http://www.w3.org/1999/xlink">
    <style>
        :root, .palette0 {color: currentColor;
            --color0: #fff;
        }
    </style>
    <path d="M18 12.47v0.03M18 12v0.47M17.525 17.526A6.744 6.744 0 0 1 15 18c-3.56 0-7.56-2.53-8.5-6 0.348-1.28 1.114-2.433 2.121-3.38M12.065 6.532A8.802 8.802 0 0 1 15 6c3.56 0 6.06 2.54 7 6-0.309 1.14-0.786 2.177-1.413 3.058" />
    <path d="M7 10.67C7 8 5.58 5.97 2.73 5.5c-1 1.5-1 5 0.23 6.5-1.24 1.5-1.24 5-0.23 6.5C5.58 18.03 7 16 7 13.33M14.48 8.958A9.77 9.77 0 0 1 16 6.07M16 17.93a9.77 9.77 0 0 1-1.728-3.618" />
    <path d="M16.01 17.93l-0.23 1.4A2 2 0 0 1 13.8 21H9.5a5.96 5.96 0 0 0 1.49-3.98M8.53 3h5.27a2 2 0 0 1 1.98 1.67l0.23 1.4M2 2 22 22" />
</svg>