<svg viewBox="0 0 24 24" stroke-width="2" stroke="currentColor" stroke-linecap="round" stroke-linejoin="round" fill="none" width="32" height="32" xmlns="http://www.w3.org/2000/svg" xmlns:xlink="http://www.w3.org/1999/xlink">
    <style>
        :root, .palette0 {color: currentColor;
            --color0: #fff;
        }
    </style>
    <circle cx="12" cy="12" r="3" />
    <path d="M12 16.5A4.5 4.5 0 1 1 7.5 12 4.5 4.5 0 1 1 12 7.5 4.5 4.5 0 1 1 16.5 12 4.5 4.5 0 1 1 12 16.5" />
    <path d="M12 7.5V9" />
    <path d="M7.5 12H9" />
    <path d="M16.5 12H15" />
    <path d="M12 16.5V15" />
    <path d="M8 8 9.88 9.88" />
    <path d="M14.12 9.88 16 8" />
    <path d="M8 16l1.88-1.88" />
    <path d="M14.12 14.12 16 16" />
</svg>