<svg viewBox="0 0 24 24" stroke-width="2" stroke="currentColor" stroke-linecap="round" stroke-linejoin="round" fill="none" width="32" height="32" xmlns="http://www.w3.org/2000/svg" xmlns:xlink="http://www.w3.org/1999/xlink">
    <style>
        :root, .palette0 {color: currentColor;
            --color0: #fff;
        }
    </style>
    <path d="M9 20H4a2 2 0 0 1-2-2V5a2 2 0 0 1 2-2h3.9a2 2 0 0 1 1.69 0.9l0.81 1.2A2 2 0 0 0 12.07 6H20a2 2 0 0 1 2 2v0.5" />
    <path d="M12 10v4h4" />
    <path d="M12 14l1.535-1.605a5 5 0 0 1 8 1.5" />
    <path d="M22 22v-4h-4" />
    <path d="M22 18l-1.535 1.605a5 5 0 0 1-8-1.5" />
</svg>