<svg viewBox="0 0 24 24" stroke-width="2" stroke="currentColor" stroke-linecap="round" stroke-linejoin="round" fill="none" width="32" height="32" xmlns="http://www.w3.org/2000/svg" xmlns:xlink="http://www.w3.org/1999/xlink">
    <style>
        :root, .palette0 {color: currentColor;
            --color0: #fff;
        }
    </style>
    <path d="M11 20H4a2 2 0 0 1-2-2V5a2 2 0 0 1 2-2h3.9a2 2 0 0 1 1.69 0.9l0.81 1.2A2 2 0 0 0 12.07 6H20a2 2 0 0 1 2 2v1.5" />
    <path d="M13.9 17.45c-1.2-1.2-1.14-2.8-0.2-3.73a2.43 2.43 0 0 1 3.44 0l0.36 0.34 0.34-0.34a2.43 2.43 0 0 1 3.45-0.01v0c0.95 0.95 1 2.53-0.2 3.74L17.5 21z" />
</svg>