<svg viewBox="0 0 24 24" stroke-width="2" stroke="currentColor" stroke-linecap="round" stroke-linejoin="round" fill="none" width="32" height="32" xmlns="http://www.w3.org/2000/svg" xmlns:xlink="http://www.w3.org/1999/xlink">
    <style>
        :root, .palette0 {color: currentColor;
            --color0: #fff;
        }
    </style>
    <path d="M2 9V5a2 2 0 0 1 2-2h3.9a2 2 0 0 1 1.69 0.9l0.81 1.2A2 2 0 0 0 12.07 6H20a2 2 0 0 1 2 2v10a2 2 0 0 1-2 2H4a2 2 0 0 1-2-2v-1" />
    <path d="M2 13h10" />
    <path d="M9 16l3-3-3-3" />
</svg>