<svg viewBox="0 0 24 24" stroke-width="2" stroke="currentColor" stroke-linecap="round" stroke-linejoin="round" fill="none" width="32" height="32" xmlns="http://www.w3.org/2000/svg" xmlns:xlink="http://www.w3.org/1999/xlink">
    <style>
        :root, .palette0 {color: currentColor;
            --color0: #fff;
        }
    </style>
    <path d="M20 17a2 2 0 0 0 2-2V9a2 2 0 0 0-2-2h-3.9a2 2 0 0 1-1.69-0.9L13.6 4.9A2 2 0 0 0 11.93 4H8a2 2 0 0 0-2 2v9a2 2 0 0 0 2 2z" />
    <path d="M2 8v11a2 2 0 0 0 2 2h14" />
</svg>