<svg viewBox="0 0 24 24" stroke-width="2" stroke="currentColor" stroke-linecap="round" stroke-linejoin="round" fill="none" width="32" height="32" xmlns="http://www.w3.org/2000/svg" xmlns:xlink="http://www.w3.org/1999/xlink">
    <style>
        :root, .palette0 {color: currentColor;
            --color0: #fff;
        }
    </style>
    <path d="M9 20H4a2 2 0 0 1-2-2V5a2 2 0 0 1 2-2h3.9a2 2 0 0 1 1.69 0.9l0.81 1.2A2 2 0 0 0 12.07 6H20a2 2 0 0 1 2 2v5" />
    <circle cx="13" cy="12" r="2" />
    <path d="M18 19c-2.8 0-5-2.2-5-5v8" />
    <circle cx="20" cy="19" r="2" />
</svg>