<svg viewBox="0 0 24 24" stroke-width="2" stroke="currentColor" stroke-linecap="round" stroke-linejoin="round" fill="none" width="32" height="32" xmlns="http://www.w3.org/2000/svg" xmlns:xlink="http://www.w3.org/1999/xlink">
    <style>
        :root, .palette0 {color: currentColor;
            --color0: #fff;
        }
    </style>
    <path d="M6 14l1.45-2.9A2 2 0 0 1 9.24 10H20a2 2 0 0 1 1.94 2.5l-1.55 6a2 2 0 0 1-1.94 1.5H4a2 2 0 0 1-2-2V5c0-1.1 0.9-2 2-2h3.93a2 2 0 0 1 1.66 0.9l0.82 1.2A2 2 0 0 0 12.07 6H18a2 2 0 0 1 2 2v2" />
    <circle cx="14" cy="15" r="1" />
</svg>