<svg viewBox="0 0 24 24" stroke-width="2" stroke="currentColor" stroke-linecap="round" stroke-linejoin="round" fill="none" width="32" height="32" xmlns="http://www.w3.org/2000/svg" xmlns:xlink="http://www.w3.org/1999/xlink">
    <style>
        :root, .palette0 {color: currentColor;
            --color0: #fff;
        }
    </style>
    <path d="M20 10a1 1 0 0 0 1-1V6a1 1 0 0 0-1-1h-2.5a1 1 0 0 1-0.8-0.4l-0.9-1.2A1 1 0 0 0 15 3h-2a1 1 0 0 0-1 1v5a1 1 0 0 0 1 1z" />
    <path d="M20 21a1 1 0 0 0 1-1v-3a1 1 0 0 0-1-1h-2.9a1 1 0 0 1-0.88-0.55L15.8 14.6a1 1 0 0 0-0.92-0.6H13a1 1 0 0 0-1 1v5a1 1 0 0 0 1 1z" />
    <path d="M3 5a2 2 0 0 0 2 2h3" />
    <path d="M3 3v13a2 2 0 0 0 2 2h3" />
</svg>