<svg viewBox="0 0 24 24" stroke-width="2" stroke="currentColor" stroke-linecap="round" stroke-linejoin="round" fill="none" width="32" height="32" xmlns="http://www.w3.org/2000/svg" xmlns:xlink="http://www.w3.org/1999/xlink">
    <style>
        :root, .palette0 {color: currentColor;
            --color0: #fff;
        }
    </style>
    <line x1="6" x2="10" y1="11" y2="11" />
    <line x1="8" x2="8" y1="9" y2="13" />
    <line x1="15" x2="15.01" y1="12" y2="12" />
    <line x1="18" x2="18.01" y1="10" y2="10" />
    <path d="M17.32 5H6.68a4 4 0 0 0-3.978 3.59c-6e-3 0.052-0.01 0.101-0.017 0.152C2.604 9.416 2 14.456 2 16a3 3 0 0 0 3 3c1 0 1.5-0.5 2-1l1.414-1.414A2 2 0 0 1 9.828 16h4.344a2 2 0 0 1 1.414 0.586L17 18c0.5 0.5 1 1 2 1a3 3 0 0 0 3-3c0-1.545-0.604-6.584-0.685-7.258-7e-3-0.05-0.011-0.1-0.017-0.151A4 4 0 0 0 17.32 5z" />
</svg>