<svg viewBox="0 0 24 24" stroke-width="2" stroke="currentColor" stroke-linecap="round" stroke-linejoin="round" fill="none" width="32" height="32" xmlns="http://www.w3.org/2000/svg" xmlns:xlink="http://www.w3.org/1999/xlink">
    <style>
        :root, .palette0 {color: currentColor;
            --color0: #fff;
        }
    </style>
    <path d="M20 7l1.7-1.7a1 1 0 0 0 0-1.4l-1.6-1.6a1 1 0 0 0-1.4 0L17 4v3z" />
    <path d="M17 7l-5.1 5.1" />
    <circle fill="currentColor" cx="11.5" cy="12.5" r="0.5" />
    <path d="M6 12a2 2 0 0 0 1.8-1.2l0.4-0.9C8.7 8.8 9.8 8 11 8c2.8 0 5 2.2 5 5 0 1.2-0.8 2.3-1.9 2.8l-0.9 0.4A2 2 0 0 0 12 18a4 4 0 0 1-4 4c-3.3 0-6-2.7-6-6a4 4 0 0 1 4-4" />
    <path d="M6 16l2 2" />
</svg>