<svg viewBox="0 0 24 24" stroke-width="2" stroke="currentColor" stroke-linecap="round" stroke-linejoin="round" fill="none" width="32" height="32" xmlns="http://www.w3.org/2000/svg" xmlns:xlink="http://www.w3.org/1999/xlink">
    <style>
        :root, .palette0 {color: currentColor;
            --color0: #fff;
        }
    </style>
    <path d="M18 12.5V10a2 2 0 0 0-2-2v0a2 2 0 0 0-2 2v1.4" />
    <path d="M14 11V9a2 2 0 1 0-4 0v2" />
    <path d="M10 10.5V5a2 2 0 1 0-4 0v9" />
    <path d="M7 15 5.24 13.24a2 2 0 0 0-2.83 2.82l3.6 3.6C7.5 21.14 9.2 22 12 22h2a8 8 0 0 0 8-8V7a2 2 0 1 0-4 0v5" />
</svg>