<svg viewBox="0 0 24 24" stroke-width="2" stroke="currentColor" stroke-linecap="round" stroke-linejoin="round" fill="none" width="32" height="32" xmlns="http://www.w3.org/2000/svg" xmlns:xlink="http://www.w3.org/1999/xlink">
    <style>
        :root, .palette0 {color: currentColor;
            --color0: #fff;
        }
    </style>
    <path d="M3 11h3a2 2 0 0 1 2 2v3a2 2 0 0 1-2 2H5a2 2 0 0 1-2-2zM3 11a9 9 0 1 1 18 0M21 11v5a2 2 0 0 1-2 2h-1a2 2 0 0 1-2-2v-3a2 2 0 0 1 2-2z" />
    <path d="M21 16v2a4 4 0 0 1-4 4h-5" />
</svg>