<svg viewBox="0 0 24 24" stroke-width="2" stroke="currentColor" stroke-linecap="round" stroke-linejoin="round" fill="none" width="32" height="32" xmlns="http://www.w3.org/2000/svg" xmlns:xlink="http://www.w3.org/1999/xlink">
    <style>
        :root, .palette0 {color: currentColor;
            --color0: #fff;
        }
    </style>
    <path d="M11 16 6 21" />
    <path d="M11 21H5a2 2 0 0 1-2-2V5a2 2 0 0 1 2-2h14a2 2 0 0 1 2 2v6.5" />
    <path d="M15.765 22A0.5 0.5 0 0 1 15 21.576V13.38a0.5 0.5 0 0 1 0.765-0.424l5.878 3.674a1 1 0 0 1 0 1.696z" />
    <circle cx="9" cy="9" r="2" />
</svg>