<svg viewBox="0 0 24 24" stroke-width="2" stroke="currentColor" stroke-linecap="round" stroke-linejoin="round" fill="none" width="32" height="32" xmlns="http://www.w3.org/2000/svg" xmlns:xlink="http://www.w3.org/1999/xlink">
    <style>
        :root, .palette0 {color: currentColor;
            --color0: #fff;
        }
    </style>
    <path d="M22 10.5V6a2 2 0 0 0-2-2H4a2 2 0 0 0-2 2v12c0 1.1 0.9 2 2 2h12.5" />
    <path d="M22 7l-8.97 5.7a1.94 1.94 0 0 1-2.06 0L2 7" />
    <path d="M18 15.28c0.2-0.4 0.5-0.8 0.9-1a2.1 2.1 0 0 1 2.6 0.4c0.3 0.4 0.5 0.8 0.5 1.3 0 1.3-2 2-2 2" />
    <path d="M20 22v0.01" />
</svg>