<svg viewBox="0 0 24 24" stroke-width="2" stroke="currentColor" stroke-linecap="round" stroke-linejoin="round" fill="none" width="32" height="32" xmlns="http://www.w3.org/2000/svg" xmlns:xlink="http://www.w3.org/1999/xlink">
    <style>
        :root, .palette0 {color: currentColor;
            --color0: #fff;
        }
    </style>
    <path d="M22 17a2 2 0 0 1-2 2H4a2 2 0 0 1-2-2V9.5C2 7 4 5 6.5 5H18c2.2 0 4 1.8 4 4z" />
    <polyline points="15 9 18 9 18 11" />
    <path d="M6.5 5C9 5 11 7 11 9.5V17a2 2 0 0 1-2 2v0" />
    <line x1="6" x2="7" y1="10" y2="10" />
</svg>