<svg viewBox="0 0 24 24" stroke-width="2" stroke="currentColor" stroke-linecap="round" stroke-linejoin="round" fill="none" width="32" height="32" xmlns="http://www.w3.org/2000/svg" xmlns:xlink="http://www.w3.org/1999/xlink">
    <style>
        :root, .palette0 {color: currentColor;
            --color0: #fff;
        }
    </style>
    <path d="M22 12.5V6a2 2 0 0 0-2-2H4a2 2 0 0 0-2 2v12c0 1.1 0.9 2 2 2h7.5" />
    <path d="M22 7l-8.97 5.7a1.94 1.94 0 0 1-2.06 0L2 7" />
    <path d="M18 21a3 3 0 1 0 0-6 3 3 0 0 0 0 6z" />
    <circle cx="18" cy="18" r="3" />
    <path d="M22 22l-1.5-1.5" />
</svg>