<svg viewBox="0 0 24 24" stroke-width="2" stroke="currentColor" stroke-linecap="round" stroke-linejoin="round" fill="none" width="32" height="32" xmlns="http://www.w3.org/2000/svg" xmlns:xlink="http://www.w3.org/1999/xlink">
    <style>
        :root, .palette0 {color: currentColor;
            --color0: #fff;
        }
    </style>
    <path d="M18 8c0 4.5-6 9-6 9s-6-4.5-6-9a6 6 0 0 1 12 0" />
    <circle cx="12" cy="8" r="2" />
    <path d="M8.835 14H5a1 1 0 0 0-0.9 0.7l-2 6C2 20.8 2 20.9 2 21c0 0.6 0.4 1 1 1h18c0.6 0 1-0.4 1-1 0-0.1 0-0.2-0.1-0.3l-2-6A1 1 0 0 0 19 14h-3.835" />
</svg>