<svg viewBox="0 0 24 24" stroke-width="2" stroke="currentColor" stroke-linecap="round" stroke-linejoin="round" fill="none" width="32" height="32" xmlns="http://www.w3.org/2000/svg" xmlns:xlink="http://www.w3.org/1999/xlink">
    <style>
        :root, .palette0 {color: currentColor;
            --color0: #fff;
        }
    </style>
    <path d="M6 19v-3" />
    <path d="M10 19v-3" />
    <path d="M14 19v-3" />
    <path d="M18 19v-3" />
    <path d="M8 11V9" />
    <path d="M16 11V9" />
    <path d="M12 11V9" />
    <path d="M2 15h20" />
    <path d="M2 7a2 2 0 0 1 2-2h16a2 2 0 0 1 2 2v1.1a2 2 0 0 0 0 3.837V17a2 2 0 0 1-2 2H4a2 2 0 0 1-2-2v-5.1a2 2 0 0 0 0-3.837z" />
</svg>