<svg viewBox="0 0 24 24" stroke-width="2" stroke="currentColor" stroke-linecap="round" stroke-linejoin="round" fill="none" width="32" height="32" xmlns="http://www.w3.org/2000/svg" xmlns:xlink="http://www.w3.org/1999/xlink">
    <style>
        :root, .palette0 {color: currentColor;
            --color0: #fff;
        }
    </style>
    <path d="M21 15a2 2 0 0 1-2 2H7l-4 4V5a2 2 0 0 1 2-2h14a2 2 0 0 1 2 2z" />
    <path d="M14.8 7.5a1.84 1.84 0 0 0-2.6 0L12 7.8 11.7 7.5a1.84 1.84 0 1 0-2.4 2.8L12 13l2.7-2.7c0.9-0.9 0.8-2.1 0.1-2.8" />
</svg>