<svg viewBox="0 0 24 24" stroke-width="2" stroke="currentColor" stroke-linecap="round" stroke-linejoin="round" fill="none" width="32" height="32" xmlns="http://www.w3.org/2000/svg" xmlns:xlink="http://www.w3.org/1999/xlink">
    <style>
        :root, .palette0 {color: currentColor;
            --color0: #fff;
        }
    </style>
    <path d="M13.5 3.1C13 3.1 12.5 3 12 3s-1 0.1-1.5 0.1" />
    <path d="M19.3 6.8a10.45 10.45 0 0 0-2.1-2.1" />
    <path d="M20.9 13.5C21 13 21 12.5 21 12s-0.1-1-0.1-1.5" />
    <path d="M17.2 19.3a10.45 10.45 0 0 0 2.1-2.1" />
    <path d="M10.5 20.9C11 21 11.5 21 12 21s1-0.1 1.5-0.1" />
    <path d="M3.5 17.5 2 22l4.5-1.5" />
    <path d="M3.1 10.5C3.1 11 3 11.5 3 12s0.1 1 0.1 1.5" />
    <path d="M6.8 4.7a10.45 10.45 0 0 0-2.1 2.1" />
</svg>