<svg viewBox="0 0 24 24" stroke-width="2" stroke="currentColor" stroke-linecap="round" stroke-linejoin="round" fill="none" width="32" height="32" xmlns="http://www.w3.org/2000/svg" xmlns:xlink="http://www.w3.org/1999/xlink">
    <style>
        :root, .palette0 {color: currentColor;
            --color0: #fff;
        }
    </style>
    <line x1="12" x2="12" y1="17" y2="22" />
    <path d="M5 17h14v-1.76a2 2 0 0 0-1.11-1.79l-1.78-0.9A2 2 0 0 1 15 10.76V6h1a2 2 0 0 0 0-4H8a2 2 0 0 0 0 4h1v4.76a2 2 0 0 1-1.11 1.79l-1.78 0.9A2 2 0 0 0 5 15.24z" />
</svg>