<svg viewBox="0 0 24 24" stroke-width="2" stroke="currentColor" stroke-linecap="round" stroke-linejoin="round" fill="none" width="32" height="32" xmlns="http://www.w3.org/2000/svg" xmlns:xlink="http://www.w3.org/1999/xlink">
    <style>
        :root, .palette0 {color: currentColor;
            --color0: #fff;
        }
    </style>
    <path d="M17.8 19.2 16 11l3.5-3.5C21 6 21.5 4 21 3c-1-0.5-3 0-4.5 1.5L13 8 4.8 6.2C4.3 6.1 3.9 6.3 3.7 6.7L3.4 7.2c-0.2 0.5-0.1 1 0.3 1.3L9 12 7 15H4l-1 1 3 2 2 3 1-1v-3l3-2 3.5 5.3c0.3 0.4 0.8 0.5 1.3 0.3l0.5-0.2c0.4-0.3 0.6-0.7 0.5-1.2z" />
</svg>