<svg viewBox="0 0 24 24" stroke-width="2" stroke="currentColor" stroke-linecap="round" stroke-linejoin="round" fill="none" width="32" height="32" xmlns="http://www.w3.org/2000/svg" xmlns:xlink="http://www.w3.org/1999/xlink">
    <style>
        :root, .palette0 {color: currentColor;
            --color0: #fff;
        }
    </style>
    <path d="M22 14a8 8 0 0 1-8 8" />
    <path d="M18 11v-1a2 2 0 0 0-2-2v0a2 2 0 0 0-2 2v0" />
    <path d="M14 10V9a2 2 0 0 0-2-2v0a2 2 0 0 0-2 2v1" />
    <path d="M10 9.5V4a2 2 0 0 0-2-2v0a2 2 0 0 0-2 2v10" />
    <path d="M18 11a2 2 0 1 1 4 0v3a8 8 0 0 1-8 8h-2c-2.8 0-4.5-0.86-5.99-2.34l-3.6-3.6a2 2 0 0 1 2.83-2.82L7 15" />
</svg>