<svg viewBox="0 0 24 24" stroke-width="2" stroke="currentColor" stroke-linecap="round" stroke-linejoin="round" fill="none" width="32" height="32" xmlns="http://www.w3.org/2000/svg" xmlns:xlink="http://www.w3.org/1999/xlink">
    <style>
        :root, .palette0 {color: currentColor;
            --color0: #fff;
        }
    </style>
    <path d="M21 8 18.74 5.74A9.75 9.75 0 0 0 12 3c-1 0-1.97 0.16-2.87 0.47" />
    <path d="M8 16H3v5" />
    <path d="M3 12c0-2.49 1-4.74 2.64-6.36" />
    <path d="M3 16l2.26 2.26A9.75 9.75 0 0 0 12 21c2.49 0 4.74-1 6.36-2.64" />
    <path d="M21 12c0 1-0.16 1.97-0.47 2.87" />
    <path d="M21 3v5h-5" />
    <path d="M22 22 2 2" />
</svg>