<svg viewBox="0 0 24 24" stroke-width="2" stroke="currentColor" stroke-linecap="round" stroke-linejoin="round" fill="none" width="32" height="32" xmlns="http://www.w3.org/2000/svg" xmlns:xlink="http://www.w3.org/1999/xlink">
    <style>
        :root, .palette0 {color: currentColor;
            --color0: #fff;
        }
    </style>
    <path d="M4.5 16.5c-1.5 1.26-2 5-2 5s3.74-0.5 5-2c0.71-0.84 0.7-2.13-0.09-2.91A2.18 2.18 0 0 0 4.5 16.5z" />
    <path d="M12 15 9 12a22 22 0 0 1 2-3.95A12.88 12.88 0 0 1 22 2c0 2.72-0.78 7.5-6 11a22.35 22.35 0 0 1-4 2z" />
    <path d="M9 12H4c0 0 0.55-3.03 2-4 1.62-1.08 5 0 5 0" />
    <path d="M12 15v5c0 0 3.03-0.55 4-2 1.08-1.62 0-5 0-5" />
</svg>