<svg viewBox="0 0 24 24" stroke-width="2" stroke="currentColor" stroke-linecap="round" stroke-linejoin="round" fill="none" width="32" height="32" xmlns="http://www.w3.org/2000/svg" xmlns:xlink="http://www.w3.org/1999/xlink">
    <style>
        :root, .palette0 {color: currentColor;
            --color0: #fff;
        }
    </style>
    <path d="M7 2h13a2 2 0 0 1 2 2v4a2 2 0 0 1-2 2h-5" />
    <path d="M10 10 2.5 2.5C2 2 2 2.5 2 5v3a2 2 0 0 0 2 2z" />
    <path d="M22 17v-1a2 2 0 0 0-2-2h-1" />
    <path d="M4 14a2 2 0 0 0-2 2v4a2 2 0 0 0 2 2h16.5l1-0.5L22 22l-8-8z" />
    <path d="M6 18h0.01" />
    <path d="M2 2 22 22" />
</svg>