<svg viewBox="0 0 24 24" stroke-width="2" stroke="currentColor" stroke-linecap="round" stroke-linejoin="round" fill="none" width="32" height="32" xmlns="http://www.w3.org/2000/svg" xmlns:xlink="http://www.w3.org/1999/xlink">
    <style>
        :root, .palette0 {color: currentColor;
            --color0: #fff;
        }
    </style>
    <circle cx="12" cy="12" r="3" />
    <path d="M4.5 10H4a2 2 0 0 1-2-2V4a2 2 0 0 1 2-2h16a2 2 0 0 1 2 2v4a2 2 0 0 1-2 2h-0.5" />
    <path d="M4.5 14H4a2 2 0 0 0-2 2v4a2 2 0 0 0 2 2h16a2 2 0 0 0 2-2v-4a2 2 0 0 0-2-2h-0.5" />
    <path d="M6 6h0.01" />
    <path d="M6 18h0.01" />
    <path d="M15.7 13.4l-0.9-0.3" />
    <path d="M9.2 10.9 8.3 10.6" />
    <path d="M10.6 15.7l0.3-0.9" />
    <path d="M13.6 15.7l-0.4-1" />
    <path d="M10.8 9.3l-0.4-1" />
    <path d="M8.3 13.6l1-0.4" />
    <path d="M14.7 10.8l1-0.4" />
    <path d="M13.4 8.3 13.1 9.2" />
</svg>