<svg viewBox="0 0 24 24" stroke-width="2" stroke="currentColor" stroke-linecap="round" stroke-linejoin="round" fill="none" width="32" height="32" xmlns="http://www.w3.org/2000/svg" xmlns:xlink="http://www.w3.org/1999/xlink">
    <style>
        :root, .palette0 {color: currentColor;
            --color0: #fff;
        }
    </style>
    <path d="M12.22 2h-0.44a2 2 0 0 0-2 2v0.18a2 2 0 0 1-1 1.73L8.35 6.16a2 2 0 0 1-2 0L6.2 6.08a2 2 0 0 0-2.73 0.73L3.25 7.19a2 2 0 0 0 0.73 2.73l0.15 0.1a2 2 0 0 1 1 1.72v0.51a2 2 0 0 1-1 1.74l-0.15 0.09a2 2 0 0 0-0.73 2.73l0.22 0.38a2 2 0 0 0 2.73 0.73l0.15-0.08a2 2 0 0 1 2 0l0.43 0.25a2 2 0 0 1 1 1.73V20a2 2 0 0 0 2 2h0.44a2 2 0 0 0 2-2v-0.18a2 2 0 0 1 1-1.73l0.43-0.25a2 2 0 0 1 2 0l0.15 0.08a2 2 0 0 0 2.73-0.73l0.22-0.39a2 2 0 0 0-0.73-2.73l-0.15-0.08a2 2 0 0 1-1-1.74v-0.5a2 2 0 0 1 1-1.74l0.15-0.09a2 2 0 0 0 0.73-2.73l-0.22-0.38a2 2 0 0 0-2.73-0.73l-0.15 0.08a2 2 0 0 1-2 0l-0.43-0.25a2 2 0 0 1-1-1.73V4a2 2 0 0 0-2-2z" />
    <circle cx="12" cy="12" r="3" />
</svg>