<svg viewBox="0 0 24 24" stroke-width="2" stroke="currentColor" stroke-linecap="round" stroke-linejoin="round" fill="none" width="32" height="32" xmlns="http://www.w3.org/2000/svg" xmlns:xlink="http://www.w3.org/1999/xlink">
    <style>
        :root, .palette0 {color: currentColor;
            --color0: #fff;
        }
    </style>
    <path d="M2 2 22 22" />
    <path d="M5 5a1 1 0 0 0-1 1v7c0 5 3.5 7.5 7.67 8.94a1 1 0 0 0 0.67 0.01c2.35-0.82 4.48-1.97 5.9-3.71" />
    <path d="M9.309 3.652A12.252 12.252 0 0 0 11.24 2.28a1.17 1.17 0 0 1 1.52 0C14.51 3.81 17 5 19 5a1 1 0 0 1 1 1v7a9.784 9.784 0 0 1-0.08 1.264" />
</svg>