<svg viewBox="0 0 24 24" stroke-width="2" stroke="currentColor" stroke-linecap="round" stroke-linejoin="round" fill="none" width="32" height="32" xmlns="http://www.w3.org/2000/svg" xmlns:xlink="http://www.w3.org/1999/xlink">
    <style>
        :root, .palette0 {color: currentColor;
            --color0: #fff;
        }
    </style>
    <path d="M12 21a9 9 0 0 0 9-9H3a9 9 0 0 0 9 9z" />
    <path d="M7 21h10" />
    <path d="M19.5 12 22 6" />
    <path d="M16.25 3c0.27 0.1 0.8 0.53 0.75 1.36-0.06 0.83-0.93 1.2-1 2.02-0.05 0.78 0.34 1.24 0.73 1.62" />
    <path d="M11.25 3c0.27 0.1 0.8 0.53 0.74 1.36-0.05 0.83-0.93 1.2-0.98 2.02-0.06 0.78 0.33 1.24 0.72 1.62" />
    <path d="M6.25 3C6.52 3.1 7.05 3.53 7 4.36 6.94 5.19 6.07 5.56 6 6.38 5.95 7.16 6.34 7.62 6.74 8" />
</svg>