<svg viewBox="0 0 24 24" stroke-width="2" stroke="currentColor" stroke-linecap="round" stroke-linejoin="round" fill="none" width="32" height="32" xmlns="http://www.w3.org/2000/svg" xmlns:xlink="http://www.w3.org/1999/xlink">
    <style>
        :root, .palette0 {color: currentColor;
            --color0: #fff;
        }
    </style>
    <path d="M19 5l3-3" />
    <path d="M2 22l3-3" />
    <path d="M6.3 20.3a2.4 2.4 0 0 0 3.4 0L12 18 6 12 3.7 14.3a2.4 2.4 0 0 0 0 3.4z" />
    <path d="M7.5 13.5 10 11" />
    <path d="M10.5 16.5 13 14" />
    <path d="M12 6l6 6 2.3-2.3a2.4 2.4 0 0 0 0-3.4l-2.6-2.6a2.4 2.4 0 0 0-3.4 0z" />
</svg>