<svg viewBox="0 0 24 24" stroke-width="2" stroke="var(--color0, #fff)" stroke-linecap="round" stroke-linejoin="round" fill="none" width="32" height="32" class="lucide lucide-wifi-pen-icon lucide-wifi-pen" xmlns="http://www.w3.org/2000/svg" xmlns:xlink="http://www.w3.org/1999/xlink">
    <style>
        :root, .palette0 {color: currentColor;
            --color0: #fff;
        }
    </style>
    <path d="M2 8.82a15 15 0 0 1 20 0" />
    <path d="M21.378 16.626a1 1 0 0 0-3.004-3.004l-4.01 4.012a2 2 0 0 0-0.506 0.854l-0.837 2.87a0.5 0.5 0 0 0 0.62 0.62l2.87-0.837a2 2 0 0 0 0.854-0.506z" />
    <path d="M5 12.859a10 10 0 0 1 10.5-2.222" />
    <path d="M8.5 16.429a5 5 0 0 1 3-1.406" />
</svg>