<svg viewBox="0 0 24 24" stroke-width="2" stroke="var(--color0, #fff)" stroke-linecap="round" stroke-linejoin="round" fill="none" width="32" height="32" class="lucide lucide-wifi-cog-icon lucide-wifi-cog" xmlns="http://www.w3.org/2000/svg" xmlns:xlink="http://www.w3.org/1999/xlink">
    <style>
        :root, .palette0 {color: currentColor;
            --color0: #fff;
        }
    </style>
    <path d="M14.305 19.53l0.923-0.382" />
    <path d="M15.228 16.852l-0.923-0.383" />
    <path d="M16.852 15.228l-0.383-0.923" />
    <path d="M16.852 20.772l-0.383 0.924" />
    <path d="M19.148 15.228l0.383-0.923" />
    <path d="M19.53 21.696l-0.382-0.924" />
    <path d="M2 7.82a15 15 0 0 1 20 0" />
    <path d="M20.772 16.852l0.924-0.383" />
    <path d="M20.772 19.148l0.924 0.383" />
    <path d="M5 11.858a10 10 0 0 1 11.5-1.785" />
    <path d="M8.5 15.429a5 5 0 0 1 2.413-1.31" />
    <circle cx="18" cy="18" r="3" />
</svg>