<svg viewBox="0 0 24 24" stroke-width="2" stroke="currentColor" stroke-linecap="round" stroke-linejoin="round" fill="none" width="32" height="32" xmlns="http://www.w3.org/2000/svg" xmlns:xlink="http://www.w3.org/1999/xlink">
    <style>
        :root, .palette0 {color: currentColor;
            --color0: #fff;
        }
    </style>
    <path d="M10.513 4.856 13.12 2.17a0.5 0.5 0 0 1 0.86 0.46l-1.377 4.317" />
    <path d="M15.656 10H20a1 1 0 0 1 0.78 1.63l-1.72 1.773" />
    <path d="M16.273 16.273 10.88 21.83a0.5 0.5 0 0 1-0.86-0.46l1.92-6.02A1 1 0 0 0 11 14H4a1 1 0 0 1-0.78-1.63l4.507-4.643" />
    <path d="M2 2 22 22" />
</svg>